<svg width="100" height="100" viewBox="0 0 100 100" fill="none" xmlns="http://www.w3.org/2000/svg">
<rect width="100" height="100" fill="#C3282B"/>
<path d="M48.2388 12.5H51.8131C61.0709 13.0273 70.1529 16.9531 76.6568 23.6328C82.5748 29.6094 86.3834 37.5781 87.2623 45.8984C88.1412 53.9258 86.3834 62.1875 82.2232 69.1602C77.8873 76.4844 71.0318 82.2266 63.0631 85.1562C54.8013 88.2617 45.4849 88.2617 37.2232 85.2734C28.9029 82.2852 21.6959 76.1914 17.3599 68.3984C13.2584 61.3086 11.7349 52.8125 12.8482 44.668C14.1373 35.3516 19.1763 26.6211 26.5591 20.7031C32.6529 15.7813 40.3873 12.9102 48.2388 12.5ZM45.7779 18.5938C35.7584 19.8242 26.6177 26.2695 21.9302 35.2344C18.1802 42.2656 17.3013 50.7031 19.4107 58.3203C21.5201 66.0547 26.6763 72.9102 33.5318 77.0703C39.9185 80.9961 47.7115 82.4609 55.0943 81.2305C64.0591 79.8828 72.2037 74.375 76.9498 66.6992C80.8755 60.3711 82.4576 52.6953 81.3443 45.3125C80.1724 37.1094 75.5435 29.4922 68.9224 24.6289C62.3599 19.6484 53.8638 17.4805 45.7779 18.5938ZM29.899 47.1289C33.7076 47.1289 37.5748 47.1289 41.3834 47.1289C41.3834 49.0625 41.3834 50.9375 41.3834 52.8711C37.5748 52.8711 33.7076 52.8711 29.899 52.8711C29.899 58.6719 29.899 64.4141 29.899 70.2148C36.1685 70.2148 42.3795 70.2148 48.649 70.2148C48.649 68.2812 48.649 66.3477 48.649 64.4141C44.3131 64.4141 40.0357 64.4141 35.6998 64.4141C35.6998 62.4805 35.6998 60.5469 35.6998 58.6133C39.5084 58.6133 43.3756 58.6133 47.1841 58.6133C47.1841 52.8711 47.1841 47.0703 47.1841 41.3281C43.3756 41.3281 39.5084 41.3281 35.6998 41.3281C35.6998 39.3945 35.6998 37.4609 35.6998 35.5859C40.0357 35.5859 44.3131 35.5859 48.649 35.5859C48.649 33.6523 48.649 31.7188 48.649 29.7852C42.3795 29.7852 36.1685 29.7852 29.899 29.7852C29.899 35.5859 29.899 41.3281 29.899 47.1289ZM51.5201 29.8438C51.5201 31.7773 51.5201 33.6523 51.5201 35.5859C55.856 35.5859 60.1334 35.5859 64.4693 35.5859C64.4693 37.5195 64.4693 39.4531 64.4693 41.3867C60.6607 41.3867 56.7935 41.3867 52.9849 41.3867C52.9849 47.1875 52.9849 52.9297 52.9849 58.7305C56.7935 58.7305 60.6607 58.7305 64.4693 58.7305C64.4693 60.6641 64.4693 62.5391 64.4693 64.4727C60.1334 64.4727 55.856 64.4727 51.5201 64.4727C51.5201 66.4062 51.5201 68.3398 51.5201 70.2734C57.731 70.2734 64.0006 70.2734 70.2115 70.2734C70.2115 64.5312 70.2115 58.7305 70.2115 52.9883C66.4029 52.9883 62.5357 52.9883 58.7271 52.9883C58.7271 51.0547 58.7271 49.1211 58.7271 47.1875C62.5357 47.1875 66.4029 47.1875 70.2115 47.1875C70.2115 41.4453 70.2115 35.6445 70.2115 29.9023C64.0006 29.8438 57.731 29.8438 51.5201 29.8438Z" fill="white"/>
</svg>
